:SAMPLES-PER-SECOND 30
:FULLY-SPECIFIED
:DEGREES
559
root  7.38143 38.3821 17.824 67.7939 83.5254 71.4841
RightUpLeg  -21.5065 -9.09588 -6.88376
RightLeg  -1.40064 -7.59796 5.40834
RightFoot  -1.42549 -0.648177 7.44305
RightToes  0.00048216 0.542163 -0.142577
Spine  9.44981 0.349128 -5.92282
Spine1  13.1517 0.135949 -1.21931
HEad  -0.928486 7.13441 -5.84388
LeftShoulder1  9.42007 -14.5284 -45.5453
LeftArm  9.78615 12.6599 -29.9893
LeftForeArm  132.913 -78.9396 -120.886
LeftHand  -0.25398 0.0180481 5.50724
RightShoulder  6.0096 10.6827 36.3694
RightArm  6.04224 -22.9247 39.5013
RightForeArm  83.7302 77.22 116.271
RightHand  -10.6711 22.323 -42.995
LeftUpLeg  19.7264 8.68404 -2.78863
LeftLeg  13.0228 10.2838 -3.0753
LeftFoot  -19.5428 -0.2921 -5.68504
LeftToes  1.06245e-005 4.65856e-005 -8.18504e-006
560
root  9.24179 38.1165 18.0201 70.1683 84.5938 73.542
RightUpLeg  -24.1223 -10.455 -4.1362
RightLeg  6.41416 -6.47916 3.79929
RightFoot  2.55548 -0.23462 2.24327
RightToes  0.00048216 0.542163 -0.142577
Spine  8.86553 0.125202 -4.29447
Spine1  13.9376 -0.131965 -0.710004
HEad  -2.54371 6.64721 -6.61234
LeftShoulder1  9.48708 -14.5091 -45.9315
LeftArm  9.75164 12.9132 -29.798
LeftForeArm  132.082 -79.0403 -119.993
LeftHand  -0.25398 0.0180481 5.50724
RightShoulder  5.95997 10.6118 36.2344
RightArm  6.85051 -22.3771 39.2455
RightForeArm  81.6012 77.1605 116.089
RightHand  -10.6205 21.9305 -43.3732
LeftUpLeg  21.8099 13.3366 1.16218
LeftLeg  15.308 3.53348 -2.16815
LeftFoot  -19.202 -0.489556 -8.77812
LeftToes  1.06245e-005 4.65856e-005 -8.18504e-006
561
root  11.1534 37.9238 18.2328 66.5108 85.9561 69.6826
RightUpLeg  -26.9672 -14.8291 0.754363
RightLeg  14.504 -0.691759 1.3532
RightFoot  7.24131 0.563065 -3.20918
RightToes  0.00048216 0.542163 -0.142577
Spine  8.7413 -0.0128858 -1.6436
Spine1  14.2725 0.0221308 -0.766613
HEad  -4.02324 6.11205 -7.46243
LeftShoulder1  9.56653 -14.4736 -46.4224
LeftArm  9.84206 13.5715 -29.4351
LeftForeArm  129.827 -79.2544 -117.834
LeftHand  -0.25398 0.0180481 5.50724
RightShoulder  5.96707 10.6157 36.2718
RightArm  7.97173 -22.0201 38.6469
RightForeArm  77.5352 77.0948 115.443
RightHand  -10.7402 21.6191 -44.2681
LeftUpLeg  22.7999 17.6685 5.68187
LeftLeg  19.5828 -2.63421 -0.93953
LeftFoot  -16.8859 -0.561178 -14.1822
LeftToes  1.06245e-005 4.65856e-005 -8.18504e-006
562
root  12.9929 37.8123 18.4465 56.7824 87.2072 59.6365
RightUpLeg  -28.8122 -15.7287 3.37404
RightLeg  21.3053 1.64475 0.262205
RightFoot  7.86926 1.12791 -6.38437
RightToes  0.00048216 0.542163 -0.142577
Spine  9.20193 -0.100553 1.20741
Spine1  13.8358 0.443938 -1.36128
HEad  -5.31192 5.45508 -8.04556
LeftShoulder1  9.64214 -14.4698 -46.8093
LeftArm  9.95042 14.408 -29.088
LeftForeArm  126.888 -79.4892 -115.103
LeftHand  -0.25398 0.0180481 5.50724
RightShoulder  6.0452 10.7614 36.3847
RightArm  8.9384 -21.7046 37.8949
RightForeArm  72.9371 77.2056 113.374
RightHand  -11.1597 21.9646 -45.2933
LeftUpLeg  19.5331 15.1131 6.60745
LeftLeg  28.2863 0.55225 0.835775
LeftFoot  -9.51047 0.299888 -16.9692
LeftToes  1.06245e-005 4.65856e-005 -8.18504e-006
563
root  14.6499 37.7237 18.6774 51.1023 88.9518 53.4955
RightUpLeg  -29.2322 -14.9099 4.40337
RightLeg  26.7208 -0.0317212 -0.254368
RightFoot  4.46752 1.13203 -7.9152
RightToes  0.00048216 0.542163 -0.142577
Spine  10.082 -0.346401 3.9333
Spine1  13.2823 0.718745 -1.57962
HEad  -6.68639 4.41317 -7.98908
LeftShoulder1  9.70994 -14.5451 -46.945
LeftArm  10.0124 14.8599 -28.9616
LeftForeArm  124.159 -79.6774 -112.567
LeftHand  -0.25398 0.0180481 5.50724
RightShoulder  6.09726 10.9085 36.3148
RightArm  9.53417 -21.0612 37.2096
RightForeArm  69.812 77.4463 110.511
RightHand  -11.4538 22.3823 -45.7304
LeftUpLeg  12.2929 11.6037 6.84141
LeftLeg  40.978 4.4432 4.50317
LeftFoot  3.20036 1.50704 -12.5067
LeftToes  1.06245e-005 4.65856e-005 -8.18504e-006
564
root  16.1137 37.6134 18.9264 -124.394 88.2275 -122.085
RightUpLeg  -28.4588 -15.8111 6.37807
RightLeg  30.47 -1.50114 -1.19947
RightFoot  0.0484006 0.8557 -8.53149
RightToes  0.00048216 0.542163 -0.142577
Spine  11.4884 -0.831414 6.91983
Spine1  13.208 0.787689 -1.03566
HEad  -8.17622 2.86011 -7.28964
LeftShoulder1  9.77088 -14.6719 -46.9091
LeftArm  10.1832 14.4569 -29.0502
LeftForeArm  121.039 -79.8711 -109.571
LeftHand  -0.25398 0.0180481 5.50724
RightShoulder  6.06006 10.9028 36.079
RightArm  9.78714 -20.0304 36.6221
RightForeArm  68.5862 77.6349 108.408
RightHand  -11.2393 22.1136 -45.3575
LeftUpLeg  3.83061 7.38469 7.65426
LeftLeg  53.3663 4.84777 7.3372
LeftFoot  13.9217 1.06235 -4.94145
LeftToes  1.06245e-005 4.65856e-005 -8.18504e-006
565
root  17.5959 37.7194 19.1905 -136.696 85.551 -133.727
RightUpLeg  -25.6845 -17.5018 7.60994
RightLeg  31.9192 -2.19829 -1.73481
RightFoot  -3.35252 0.564034 -8.36198
RightToes  0.00048216 0.542163 -0.142577
Spine  13.2608 -1.22161 9.15932
Spine1  13.1307 0.893766 -0.608034
HEad  -9.45143 1.11386 -6.25613
LeftShoulder1  9.82645 -14.7786 -46.9003
LeftArm  10.5283 13.4077 -29.1253
LeftForeArm  116.618 -80.093 -105.286
LeftHand  -0.25398 0.0180481 5.50724
RightShoulder  6.01484 10.8358 35.9635
RightArm  9.80593 -18.888 36.0873
RightForeArm  67.0661 77.7824 106.408
RightHand  -10.9482 21.7101 -44.903
LeftUpLeg  -3.33932 3.20883 8.35259
LeftLeg  62.1798 3.34485 7.42938
LeftFoot  16.5325 0.165816 -1.0037
LeftToes  1.06245e-005 4.65856e-005 -8.18504e-006
566
root  19.1811 38.0981 19.4555 -146.369 84.0155 -142.588
RightUpLeg  -21.5011 -19.7757 7.23335
RightLeg  31.3564 -1.78059 -1.4354
RightFoot  -5.74053 0.342503 -7.77706
RightToes  0.00048216 0.542163 -0.142577
Spine  14.7218 -1.24674 9.8251
Spine1  12.6643 1.20163 -0.914862
HEad  -10.1663 -0.435822 -5.11805
LeftShoulder1  9.86869 -14.8474 -46.9258
LeftArm  10.806 12.4676 -29.0646
LeftForeArm  111.842 -80.2593 -100.723
LeftHand  -0.25398 0.0180481 5.50724
RightShoulder  6.05261 10.88 36.0937
RightArm  9.73501 -17.8745 35.6703
RightForeArm  63.2957 77.9996 102.426
RightHand  -11.0947 22.0542 -44.9248
LeftUpLeg  -9.13926 0.180116 7.99217
LeftLeg  66.402 2.15255 6.13509
LeftFoot  13.2906 0.0591649 -0.685411
LeftToes  1.06245e-005 4.65856e-005 -8.18504e-006
567
root  20.8025 38.508 19.7155 -153.351 83.3824 -149.257
RightUpLeg  -17.2562 -22.0696 6.28763
RightLeg  29.892 -0.819935 -0.801522
RightFoot  -7.81922 0.175315 -7.42712
RightToes  0.00048216 0.542163 -0.142577
Spine  15.2948 -0.818147 9.76167
Spine1  12.1329 1.83458 -1.59312
HEad  -10.164 -1.83033 -4.07705
LeftShoulder1  9.8797 -14.9171 -46.7975
LeftArm  10.8005 12.1387 -28.9924
LeftForeArm  108.7 -80.3258 -97.8221
LeftHand  -0.25398 0.0180481 5.50724
RightShoulder  6.12444 10.9841 36.2825
RightArm  9.74416 -17.0279 35.4849
RightForeArm  58.2417 78.2113 96.8517
RightHand  -11.1681 22.3652 -44.731
LeftUpLeg  -14.2017 -1.2307 7.19403
LeftLeg  66.4644 1.66047 4.91096
LeftFoot  8.91703 0.253449 -1.70622
LeftToes  1.06245e-005 4.65856e-005 -8.18504e-006
568
root  22.4603 38.882 20.0025 -155.85 83.4031 -151.71
RightUpLeg  -12.7961 -23.2235 5.41582
RightLeg  27.5267 -0.264373 -0.203534
RightFoot  -9.56752 0.0493746 -7.3366
RightToes  0.00048216 0.542163 -0.142577
Spine  15.2181 0.0978774 9.46489
Spine1  11.7137 2.83249 -2.36993
HEad  -9.50202 -3.34335 -3.57019
LeftShoulder1  9.85761 -14.9946 -46.489
LeftArm  10.6124 12.3177 -28.9832
LeftForeArm  107.628 -80.33 -97.0194
LeftHand  -0.25398 0.0180481 5.50724
RightShoulder  6.13254 10.9924 36.3131
RightArm  9.85634 -16.2746 35.5357
RightForeArm  54.0153 78.2931 92.3698
RightHand  -10.7072 21.6957 -44.0315
LeftUpLeg  -18.2611 -1.06626 6.45391
LeftLeg  63.1285 1.74647 4.36573
LeftFoot  5.49299 0.136475 -1.11273
LeftToes  1.06245e-005 4.65856e-005 -8.18504e-006
569
root  24.1046 39.2157 20.2916 -159.335 83.3787 -155.118
RightUpLeg  -8.05262 -21.9771 4.05586
RightLeg  24.6845 -1.84396 0.411882
RightFoot  -10.8254 -0.0415713 -6.89226
RightToes  0.00048216 0.542163 -0.142577
Spine  15.0773 1.04762 8.79523
Spine1  11.2758 3.71629 -3.07614
HEad  -8.68649 -4.94064 -3.79087
LeftShoulder1  9.82267 -15.0374 -46.2092
LeftArm  10.4213 12.6995 -28.8836
LeftForeArm  107.445 -80.3036 -97.2835
LeftHand  -0.25398 0.0180481 5.50724
RightShoulder  6.08256 10.9199 36.1828
RightArm  10.1383 -15.5129 35.7532
RightForeArm  50.6174 78.2893 89.3245
RightHand  -10.093 20.6282 -43.3094
LeftUpLeg  -21.1268 -0.211727 5.44607
LeftLeg  56.7914 2.02395 3.85105
LeftFoot  2.20589 -0.00764346 -0.0857735
LeftToes  1.06245e-005 4.65856e-005 -8.18504e-006
